<svg xmlns="http://www.w3.org/2000/svg" xmlns:xlink="http://www.w3.org/1999/xlink" width="200" height="200" viewBox="-7.994 0.006 225.989 225.989">
  <defs>
    <style>
      .cls-1 {
        fill: #fff;
        fill-rule: evenodd;
      }
    </style>
    <clipPath id="clip-path">
      <rect width="210" height="226"/>
    </clipPath>
  </defs>
  <g clip-path="url(#clip-path)">
    <path id="D" class="cls-1" d="M18.5,123H69.948c30.3,0,53.1-17.85,53.1-52.348S100.246,18,69.948,18H18.5V123ZM52.848,96V45H65c17.7,0,24.9,9.9,24.9,25.5S82.7,96,66.2,96H52.848Z"/>
    <path id="S" class="cls-1" d="M93.85,197h63.9c20.1,0,33.449-13.5,33.449-33.6,0-21-13.35-32.4-33.449-32.4H132.1c-4.05,0-7.5-1.65-7.5-6,0-4.5,3.449-6,7.5-6h54V92H125.2C106,92,91.75,102.653,91.75,124.852,91.75,146.452,106,158,125.2,158h25.049c5.55,0,7.8,2.1,7.8,6.3,0,3.6-2.25,5.7-7.65,5.7H93.85v27Z"/>
  </g>
</svg>
